<mxfile host="app.diagrams.net" agent="Mozilla/5.0 (Windows NT 10.0; Win64; x64) AppleWebKit/537.36 (KHTML, like Gecko) Chrome/130.0.0.0 Safari/537.36 Edg/130.0.0.0" version="24.8.4">
  <diagram name="PÃ¡gina-1" id="f1i8HtzBejDVAzslLfuj">
    <mxGraphModel dx="1426" dy="747" grid="1" gridSize="10" guides="1" tooltips="1" connect="1" arrows="1" fold="1" page="1" pageScale="1" pageWidth="1169" pageHeight="827" math="0" shadow="0">
      <root>
        <mxCell id="0" />
        <mxCell id="1" parent="0" />
        <mxCell id="6Cay4Wr6NAdQ-ACYms2q-1" value="" style="edgeStyle=orthogonalEdgeStyle;rounded=0;orthogonalLoop=1;jettySize=auto;html=1;strokeWidth=2;fillColor=#d5e8d4;strokeColor=#82b366;endArrow=block;endFill=1;fontStyle=1" edge="1" parent="1" source="6Cay4Wr6NAdQ-ACYms2q-2" target="6Cay4Wr6NAdQ-ACYms2q-57">
          <mxGeometry relative="1" as="geometry" />
        </mxCell>
        <mxCell id="6Cay4Wr6NAdQ-ACYms2q-2" value="Pix request" style="rounded=1;whiteSpace=wrap;html=1;fontSize=12;glass=0;strokeWidth=1;shadow=0;fillColor=#eeeeee;strokeColor=#36393d;fontStyle=1" vertex="1" parent="1">
          <mxGeometry x="130.06" y="27.5" width="120" height="40" as="geometry" />
        </mxCell>
        <mxCell id="6Cay4Wr6NAdQ-ACYms2q-3" value="" style="edgeStyle=orthogonalEdgeStyle;rounded=0;orthogonalLoop=1;jettySize=auto;html=1;fontStyle=1;endArrow=cross;endFill=0;fillColor=#e51400;strokeColor=#B20000;strokeWidth=2;" edge="1" parent="1" source="6Cay4Wr6NAdQ-ACYms2q-5" target="6Cay4Wr6NAdQ-ACYms2q-6">
          <mxGeometry relative="1" as="geometry" />
        </mxCell>
        <mxCell id="6Cay4Wr6NAdQ-ACYms2q-4" value="" style="edgeStyle=orthogonalEdgeStyle;rounded=0;orthogonalLoop=1;jettySize=auto;html=1;fillColor=#d5e8d4;strokeColor=#82b366;strokeWidth=2;endArrow=block;endFill=1;" edge="1" parent="1" source="6Cay4Wr6NAdQ-ACYms2q-5" target="6Cay4Wr6NAdQ-ACYms2q-26">
          <mxGeometry relative="1" as="geometry" />
        </mxCell>
        <mxCell id="6Cay4Wr6NAdQ-ACYms2q-5" value="Is valid?" style="rhombus;whiteSpace=wrap;html=1;shadow=0;fontFamily=Helvetica;fontSize=12;align=center;strokeWidth=1;spacing=6;spacingTop=-4;fillColor=#ffcc99;strokeColor=#36393d;fontStyle=1" vertex="1" parent="1">
          <mxGeometry x="140.06" y="350" width="100" height="80" as="geometry" />
        </mxCell>
        <mxCell id="6Cay4Wr6NAdQ-ACYms2q-6" value="&lt;span style=&quot;&quot;&gt;Throw error&lt;/span&gt;" style="rounded=1;whiteSpace=wrap;html=1;fontSize=12;glass=0;strokeWidth=1;shadow=0;fillColor=#ffcccc;strokeColor=#36393d;fontStyle=1" vertex="1" parent="1">
          <mxGeometry x="275.06" y="370" width="120" height="40" as="geometry" />
        </mxCell>
        <mxCell id="6Cay4Wr6NAdQ-ACYms2q-7" value="" style="edgeStyle=orthogonalEdgeStyle;rounded=0;orthogonalLoop=1;jettySize=auto;html=1;fontStyle=1;fillColor=#f0a30a;strokeColor=#BD7000;strokeWidth=2;endArrow=block;endFill=1;" edge="1" parent="1" source="6Cay4Wr6NAdQ-ACYms2q-9" target="6Cay4Wr6NAdQ-ACYms2q-18">
          <mxGeometry relative="1" as="geometry" />
        </mxCell>
        <mxCell id="6Cay4Wr6NAdQ-ACYms2q-8" style="edgeStyle=orthogonalEdgeStyle;rounded=0;orthogonalLoop=1;jettySize=auto;html=1;endArrow=block;endFill=1;fillColor=#d5e8d4;strokeColor=#82b366;strokeWidth=2;fontStyle=1" edge="1" parent="1" source="6Cay4Wr6NAdQ-ACYms2q-9">
          <mxGeometry relative="1" as="geometry">
            <mxPoint x="290" y="560" as="targetPoint" />
          </mxGeometry>
        </mxCell>
        <mxCell id="6Cay4Wr6NAdQ-ACYms2q-9" value="Is valid?" style="rhombus;whiteSpace=wrap;html=1;shadow=0;fontFamily=Helvetica;fontSize=12;align=center;strokeWidth=1;spacing=6;spacingTop=-4;fillColor=#ffcc99;strokeColor=#36393d;fontStyle=1" vertex="1" parent="1">
          <mxGeometry x="140.06" y="520" width="100" height="80" as="geometry" />
        </mxCell>
        <mxCell id="6Cay4Wr6NAdQ-ACYms2q-10" style="edgeStyle=orthogonalEdgeStyle;rounded=0;orthogonalLoop=1;jettySize=auto;html=1;fontStyle=1;endArrow=block;endFill=1;strokeWidth=2;fillColor=#f0a30a;strokeColor=#BD7000;" edge="1" parent="1" source="6Cay4Wr6NAdQ-ACYms2q-11" target="6Cay4Wr6NAdQ-ACYms2q-59">
          <mxGeometry relative="1" as="geometry" />
        </mxCell>
        <mxCell id="6Cay4Wr6NAdQ-ACYms2q-11" value="Throw a message/put in quarentine" style="rounded=1;whiteSpace=wrap;html=1;fontSize=12;glass=0;strokeWidth=1;shadow=0;fillColor=#ffcccc;strokeColor=#36393d;fontStyle=1" vertex="1" parent="1">
          <mxGeometry x="130.06" y="756" width="120" height="60" as="geometry" />
        </mxCell>
        <mxCell id="6Cay4Wr6NAdQ-ACYms2q-12" value="" style="edgeStyle=orthogonalEdgeStyle;rounded=0;orthogonalLoop=1;jettySize=auto;html=1;fillColor=#f0a30a;strokeColor=#BD7000;strokeWidth=2;endArrow=block;endFill=1;" edge="1" parent="1" target="6Cay4Wr6NAdQ-ACYms2q-29">
          <mxGeometry relative="1" as="geometry">
            <mxPoint x="559.06" y="560" as="sourcePoint" />
          </mxGeometry>
        </mxCell>
        <mxCell id="6Cay4Wr6NAdQ-ACYms2q-13" value="Ledger" style="rounded=1;whiteSpace=wrap;html=1;fontSize=12;glass=0;strokeWidth=1;shadow=0;fillColor=#eeeeee;strokeColor=#36393d;fontStyle=1" vertex="1" parent="1">
          <mxGeometry x="440.06" y="540" width="120" height="40" as="geometry" />
        </mxCell>
        <mxCell id="6Cay4Wr6NAdQ-ACYms2q-14" value="" style="edgeStyle=orthogonalEdgeStyle;rounded=0;orthogonalLoop=1;jettySize=auto;html=1;strokeWidth=2;endArrow=block;endFill=1;fontStyle=1" edge="1" parent="1" source="6Cay4Wr6NAdQ-ACYms2q-15" target="6Cay4Wr6NAdQ-ACYms2q-2">
          <mxGeometry relative="1" as="geometry" />
        </mxCell>
        <mxCell id="6Cay4Wr6NAdQ-ACYms2q-15" value="Client" style="shape=umlActor;verticalLabelPosition=bottom;verticalAlign=top;html=1;outlineConnect=0;fillColor=#eeeeee;strokeColor=#36393d;fontStyle=1" vertex="1" parent="1">
          <mxGeometry x="20.119999999999997" y="20" width="30" height="55" as="geometry" />
        </mxCell>
        <mxCell id="6Cay4Wr6NAdQ-ACYms2q-16" value="" style="edgeStyle=orthogonalEdgeStyle;rounded=0;orthogonalLoop=1;jettySize=auto;html=1;fontStyle=1;fillColor=#f0a30a;strokeColor=#BD7000;strokeWidth=2;endArrow=block;endFill=1;" edge="1" parent="1" source="6Cay4Wr6NAdQ-ACYms2q-18" target="6Cay4Wr6NAdQ-ACYms2q-11">
          <mxGeometry relative="1" as="geometry" />
        </mxCell>
        <mxCell id="6Cay4Wr6NAdQ-ACYms2q-17" value="" style="edgeStyle=orthogonalEdgeStyle;rounded=0;orthogonalLoop=1;jettySize=auto;html=1;fontStyle=1;fillColor=#e51400;strokeColor=#B20000;strokeWidth=2;endArrow=cross;endFill=0;" edge="1" parent="1" source="6Cay4Wr6NAdQ-ACYms2q-18" target="6Cay4Wr6NAdQ-ACYms2q-24">
          <mxGeometry relative="1" as="geometry" />
        </mxCell>
        <mxCell id="6Cay4Wr6NAdQ-ACYms2q-18" value="Anti-fraud error?" style="rhombus;whiteSpace=wrap;html=1;shadow=0;fontFamily=Helvetica;fontSize=12;align=center;strokeWidth=1;spacing=6;spacingTop=-4;fillColor=#ffcc99;strokeColor=#36393d;fontStyle=1" vertex="1" parent="1">
          <mxGeometry x="140.06" y="641" width="100" height="80" as="geometry" />
        </mxCell>
        <mxCell id="6Cay4Wr6NAdQ-ACYms2q-19" value="&lt;span style=&quot;color: rgb(0, 0, 0); font-family: Helvetica; font-size: 11px; font-style: normal; font-variant-ligatures: normal; font-variant-caps: normal; letter-spacing: normal; orphans: 2; text-align: center; text-indent: 0px; text-transform: none; widows: 2; word-spacing: 0px; -webkit-text-stroke-width: 0px; white-space: nowrap; background-color: rgb(251, 251, 251); text-decoration-thickness: initial; text-decoration-style: initial; text-decoration-color: initial; float: none; display: inline !important;&quot;&gt;Yes&lt;/span&gt;" style="text;whiteSpace=wrap;html=1;fontStyle=1" vertex="1" parent="1">
          <mxGeometry x="165.05999999999995" y="430" width="50" height="40" as="geometry" />
        </mxCell>
        <mxCell id="6Cay4Wr6NAdQ-ACYms2q-20" value="&lt;span style=&quot;color: rgb(0, 0, 0); font-family: Helvetica; font-size: 11px; font-style: normal; font-variant-ligatures: normal; font-variant-caps: normal; letter-spacing: normal; orphans: 2; text-align: center; text-indent: 0px; text-transform: none; widows: 2; word-spacing: 0px; -webkit-text-stroke-width: 0px; white-space: nowrap; background-color: rgb(251, 251, 251); text-decoration-thickness: initial; text-decoration-style: initial; text-decoration-color: initial; float: none; display: inline !important;&quot;&gt;Yes&lt;/span&gt;" style="text;whiteSpace=wrap;html=1;fontStyle=1" vertex="1" parent="1">
          <mxGeometry x="245.06" y="536" width="50" height="40" as="geometry" />
        </mxCell>
        <mxCell id="6Cay4Wr6NAdQ-ACYms2q-21" value="&lt;span style=&quot;color: rgb(0, 0, 0); font-family: Helvetica; font-size: 11px; font-style: normal; font-variant-ligatures: normal; font-variant-caps: normal; letter-spacing: normal; orphans: 2; text-align: center; text-indent: 0px; text-transform: none; widows: 2; word-spacing: 0px; -webkit-text-stroke-width: 0px; white-space: nowrap; background-color: rgb(251, 251, 251); text-decoration-thickness: initial; text-decoration-style: initial; text-decoration-color: initial; float: none; display: inline !important;&quot;&gt;Yes&lt;/span&gt;" style="text;whiteSpace=wrap;html=1;fontStyle=1" vertex="1" parent="1">
          <mxGeometry x="200.06" y="721" width="50" height="40" as="geometry" />
        </mxCell>
        <mxCell id="6Cay4Wr6NAdQ-ACYms2q-22" value="&lt;span style=&quot;color: rgb(0, 0, 0); font-family: Helvetica; font-size: 11px; font-style: normal; font-variant-ligatures: normal; font-variant-caps: normal; letter-spacing: normal; orphans: 2; text-align: center; text-indent: 0px; text-transform: none; widows: 2; word-spacing: 0px; -webkit-text-stroke-width: 0px; white-space: nowrap; background-color: rgb(251, 251, 251); text-decoration-thickness: initial; text-decoration-style: initial; text-decoration-color: initial; float: none; display: inline !important;&quot;&gt;No&lt;/span&gt;" style="text;whiteSpace=wrap;html=1;fontStyle=1" vertex="1" parent="1">
          <mxGeometry x="200.06" y="606" width="50" height="40" as="geometry" />
        </mxCell>
        <mxCell id="6Cay4Wr6NAdQ-ACYms2q-23" value="&lt;span style=&quot;color: rgb(0, 0, 0); font-family: Helvetica; font-size: 11px; font-style: normal; font-variant-ligatures: normal; font-variant-caps: normal; letter-spacing: normal; orphans: 2; text-align: center; text-indent: 0px; text-transform: none; widows: 2; word-spacing: 0px; -webkit-text-stroke-width: 0px; white-space: nowrap; background-color: rgb(251, 251, 251); text-decoration-thickness: initial; text-decoration-style: initial; text-decoration-color: initial; float: none; display: inline !important;&quot;&gt;No&lt;/span&gt;" style="text;whiteSpace=wrap;html=1;fontStyle=1" vertex="1" parent="1">
          <mxGeometry x="240.06" y="365" width="50" height="40" as="geometry" />
        </mxCell>
        <mxCell id="6Cay4Wr6NAdQ-ACYms2q-24" value="&lt;span style=&quot;&quot;&gt;Throw error&lt;/span&gt;" style="rounded=1;whiteSpace=wrap;html=1;fontSize=12;glass=0;strokeWidth=1;shadow=0;fillColor=#ffcccc;strokeColor=#36393d;fontStyle=1" vertex="1" parent="1">
          <mxGeometry x="20.06" y="658" width="90.06" height="46" as="geometry" />
        </mxCell>
        <mxCell id="6Cay4Wr6NAdQ-ACYms2q-25" value="" style="edgeStyle=orthogonalEdgeStyle;rounded=0;orthogonalLoop=1;jettySize=auto;html=1;fontStyle=1;fillColor=#f0a30a;strokeColor=#BD7000;strokeWidth=2;endArrow=block;endFill=1;" edge="1" parent="1" source="6Cay4Wr6NAdQ-ACYms2q-26" target="6Cay4Wr6NAdQ-ACYms2q-9">
          <mxGeometry relative="1" as="geometry" />
        </mxCell>
        <mxCell id="6Cay4Wr6NAdQ-ACYms2q-26" value="&lt;div&gt;Validation by the Authorizer**&lt;/div&gt;" style="rounded=1;whiteSpace=wrap;html=1;fontSize=12;glass=0;strokeWidth=1;shadow=0;fillColor=#eeeeee;strokeColor=#36393d;fontStyle=1" vertex="1" parent="1">
          <mxGeometry x="130.06" y="460" width="120" height="40" as="geometry" />
        </mxCell>
        <mxCell id="6Cay4Wr6NAdQ-ACYms2q-27" value="" style="edgeStyle=orthogonalEdgeStyle;rounded=0;orthogonalLoop=1;jettySize=auto;html=1;fillColor=#d5e8d4;strokeColor=#82b366;strokeWidth=2;endArrow=block;endFill=1;" edge="1" parent="1" source="6Cay4Wr6NAdQ-ACYms2q-29" target="6Cay4Wr6NAdQ-ACYms2q-31">
          <mxGeometry relative="1" as="geometry" />
        </mxCell>
        <mxCell id="6Cay4Wr6NAdQ-ACYms2q-28" value="" style="edgeStyle=orthogonalEdgeStyle;rounded=0;orthogonalLoop=1;jettySize=auto;html=1;endArrow=cross;endFill=0;fillColor=#e51400;strokeColor=#B20000;strokeWidth=2;" edge="1" parent="1" source="6Cay4Wr6NAdQ-ACYms2q-29" target="6Cay4Wr6NAdQ-ACYms2q-32">
          <mxGeometry relative="1" as="geometry" />
        </mxCell>
        <mxCell id="6Cay4Wr6NAdQ-ACYms2q-29" value="The client exists?" style="rhombus;whiteSpace=wrap;html=1;shadow=0;fontFamily=Helvetica;fontSize=12;align=center;strokeWidth=1;spacing=6;spacingTop=-4;fillColor=#ffcc99;strokeColor=#36393d;fontStyle=1" vertex="1" parent="1">
          <mxGeometry x="599.06" y="520" width="100" height="80" as="geometry" />
        </mxCell>
        <mxCell id="6Cay4Wr6NAdQ-ACYms2q-30" value="" style="edgeStyle=orthogonalEdgeStyle;rounded=0;orthogonalLoop=1;jettySize=auto;html=1;fillColor=#f0a30a;strokeColor=#BD7000;strokeWidth=2;endArrow=block;endFill=1;" edge="1" parent="1" source="6Cay4Wr6NAdQ-ACYms2q-31" target="6Cay4Wr6NAdQ-ACYms2q-37">
          <mxGeometry relative="1" as="geometry" />
        </mxCell>
        <mxCell id="6Cay4Wr6NAdQ-ACYms2q-31" value="Transaction API" style="rounded=1;whiteSpace=wrap;html=1;fontSize=12;glass=0;strokeWidth=1;shadow=0;fillColor=#eeeeee;strokeColor=#36393d;fontStyle=1" vertex="1" parent="1">
          <mxGeometry x="739.06" y="540" width="120" height="40" as="geometry" />
        </mxCell>
        <mxCell id="6Cay4Wr6NAdQ-ACYms2q-32" value="Throw error" style="rounded=1;whiteSpace=wrap;html=1;fontSize=12;glass=0;strokeWidth=1;shadow=0;fillColor=#ffcccc;strokeColor=#36393d;fontStyle=1" vertex="1" parent="1">
          <mxGeometry x="589.06" y="626" width="120" height="40" as="geometry" />
        </mxCell>
        <mxCell id="6Cay4Wr6NAdQ-ACYms2q-33" value="&lt;span style=&quot;color: rgb(0, 0, 0); font-family: Helvetica; font-size: 11px; font-style: normal; font-variant-ligatures: normal; font-variant-caps: normal; letter-spacing: normal; orphans: 2; text-align: center; text-indent: 0px; text-transform: none; widows: 2; word-spacing: 0px; -webkit-text-stroke-width: 0px; white-space: nowrap; background-color: rgb(251, 251, 251); text-decoration-thickness: initial; text-decoration-style: initial; text-decoration-color: initial; float: none; display: inline !important;&quot;&gt;Yes&lt;/span&gt;" style="text;whiteSpace=wrap;html=1;fontStyle=1" vertex="1" parent="1">
          <mxGeometry x="699.06" y="530" width="50" height="40" as="geometry" />
        </mxCell>
        <mxCell id="6Cay4Wr6NAdQ-ACYms2q-34" value="&lt;span style=&quot;color: rgb(0, 0, 0); font-family: Helvetica; font-size: 11px; font-style: normal; font-variant-ligatures: normal; font-variant-caps: normal; letter-spacing: normal; orphans: 2; text-align: center; text-indent: 0px; text-transform: none; widows: 2; word-spacing: 0px; -webkit-text-stroke-width: 0px; white-space: nowrap; background-color: rgb(251, 251, 251); text-decoration-thickness: initial; text-decoration-style: initial; text-decoration-color: initial; float: none; display: inline !important;&quot;&gt;No&lt;/span&gt;" style="text;whiteSpace=wrap;html=1;fontStyle=1" vertex="1" parent="1">
          <mxGeometry x="620" y="596" width="50" height="40" as="geometry" />
        </mxCell>
        <mxCell id="6Cay4Wr6NAdQ-ACYms2q-35" value="" style="edgeStyle=orthogonalEdgeStyle;rounded=0;orthogonalLoop=1;jettySize=auto;html=1;strokeWidth=2;endArrow=cross;endFill=0;fillColor=#e51400;strokeColor=#B20000;" edge="1" parent="1" source="6Cay4Wr6NAdQ-ACYms2q-37" target="6Cay4Wr6NAdQ-ACYms2q-38">
          <mxGeometry relative="1" as="geometry" />
        </mxCell>
        <mxCell id="6Cay4Wr6NAdQ-ACYms2q-36" value="" style="edgeStyle=orthogonalEdgeStyle;rounded=0;orthogonalLoop=1;jettySize=auto;html=1;fillColor=#d5e8d4;strokeColor=#82b366;strokeWidth=2;endArrow=block;endFill=1;" edge="1" parent="1" source="6Cay4Wr6NAdQ-ACYms2q-37" target="6Cay4Wr6NAdQ-ACYms2q-52">
          <mxGeometry relative="1" as="geometry" />
        </mxCell>
        <mxCell id="6Cay4Wr6NAdQ-ACYms2q-37" value="Succeeded" style="rhombus;whiteSpace=wrap;html=1;shadow=0;fontFamily=Helvetica;fontSize=12;align=center;strokeWidth=1;spacing=6;spacingTop=-4;fillColor=#ffcc99;strokeColor=#36393d;fontStyle=1" vertex="1" parent="1">
          <mxGeometry x="749.06" y="621" width="100" height="80" as="geometry" />
        </mxCell>
        <mxCell id="6Cay4Wr6NAdQ-ACYms2q-38" value="Throw error" style="rounded=1;whiteSpace=wrap;html=1;fontSize=12;glass=0;strokeWidth=1;shadow=0;fillColor=#ffcccc;strokeColor=#36393d;fontStyle=1" vertex="1" parent="1">
          <mxGeometry x="739.06" y="736" width="120" height="40" as="geometry" />
        </mxCell>
        <mxCell id="6Cay4Wr6NAdQ-ACYms2q-39" value="&lt;span style=&quot;color: rgb(0, 0, 0); font-family: Helvetica; font-size: 11px; font-style: normal; font-variant-ligatures: normal; font-variant-caps: normal; letter-spacing: normal; orphans: 2; text-align: center; text-indent: 0px; text-transform: none; widows: 2; word-spacing: 0px; -webkit-text-stroke-width: 0px; white-space: nowrap; background-color: rgb(251, 251, 251); text-decoration-thickness: initial; text-decoration-style: initial; text-decoration-color: initial; float: none; display: inline !important;&quot;&gt;No&lt;/span&gt;" style="text;whiteSpace=wrap;html=1;fontStyle=1" vertex="1" parent="1">
          <mxGeometry x="774.06" y="701" width="50" height="40" as="geometry" />
        </mxCell>
        <mxCell id="6Cay4Wr6NAdQ-ACYms2q-40" value="&lt;span style=&quot;color: rgb(0, 0, 0); font-family: Helvetica; font-size: 11px; font-style: normal; font-variant-ligatures: normal; font-variant-caps: normal; letter-spacing: normal; orphans: 2; text-align: center; text-indent: 0px; text-transform: none; widows: 2; word-spacing: 0px; -webkit-text-stroke-width: 0px; white-space: nowrap; background-color: rgb(251, 251, 251); text-decoration-thickness: initial; text-decoration-style: initial; text-decoration-color: initial; float: none; display: inline !important;&quot;&gt;Yes&lt;/span&gt;" style="text;whiteSpace=wrap;html=1;fontStyle=1" vertex="1" parent="1">
          <mxGeometry x="849.06" y="636" width="50" height="40" as="geometry" />
        </mxCell>
        <mxCell id="6Cay4Wr6NAdQ-ACYms2q-41" value="" style="edgeStyle=orthogonalEdgeStyle;rounded=0;orthogonalLoop=1;jettySize=auto;html=1;strokeWidth=2;fillColor=#e51400;strokeColor=#B20000;endArrow=cross;endFill=0;" edge="1" parent="1" source="6Cay4Wr6NAdQ-ACYms2q-43" target="6Cay4Wr6NAdQ-ACYms2q-45">
          <mxGeometry relative="1" as="geometry" />
        </mxCell>
        <mxCell id="6Cay4Wr6NAdQ-ACYms2q-42" style="edgeStyle=orthogonalEdgeStyle;rounded=0;orthogonalLoop=1;jettySize=auto;html=1;fillColor=#d5e8d4;strokeColor=#82b366;strokeWidth=2;endArrow=block;endFill=1;" edge="1" parent="1" source="6Cay4Wr6NAdQ-ACYms2q-43">
          <mxGeometry relative="1" as="geometry">
            <mxPoint x="1089.06" y="410" as="targetPoint" />
          </mxGeometry>
        </mxCell>
        <mxCell id="6Cay4Wr6NAdQ-ACYms2q-43" value="Succeeded" style="rhombus;whiteSpace=wrap;html=1;shadow=0;fontFamily=Helvetica;fontSize=12;align=center;strokeWidth=1;spacing=6;spacingTop=-4;fillColor=#ffcc99;strokeColor=#36393d;fontStyle=1" vertex="1" parent="1">
          <mxGeometry x="1039.06" y="621" width="100" height="80" as="geometry" />
        </mxCell>
        <mxCell id="6Cay4Wr6NAdQ-ACYms2q-44" value="&lt;span style=&quot;color: rgb(0, 0, 0); font-family: Helvetica; font-size: 11px; font-style: normal; font-variant-ligatures: normal; font-variant-caps: normal; letter-spacing: normal; orphans: 2; text-align: center; text-indent: 0px; text-transform: none; widows: 2; word-spacing: 0px; -webkit-text-stroke-width: 0px; white-space: nowrap; background-color: rgb(251, 251, 251); text-decoration-thickness: initial; text-decoration-style: initial; text-decoration-color: initial; float: none; display: inline !important;&quot;&gt;Yes&lt;/span&gt;" style="text;whiteSpace=wrap;html=1;fontStyle=1" vertex="1" parent="1">
          <mxGeometry x="1059.06" y="591" width="50" height="40" as="geometry" />
        </mxCell>
        <mxCell id="6Cay4Wr6NAdQ-ACYms2q-45" value="&lt;span style=&quot;font-weight: 700;&quot;&gt;Throw error&lt;/span&gt;" style="rounded=1;whiteSpace=wrap;html=1;fontSize=12;glass=0;strokeWidth=1;shadow=0;fillColor=#ffcccc;strokeColor=#36393d;" vertex="1" parent="1">
          <mxGeometry x="1029.06" y="730" width="120" height="40" as="geometry" />
        </mxCell>
        <mxCell id="6Cay4Wr6NAdQ-ACYms2q-46" value="Send back the information and finalize the transaction" style="rounded=1;whiteSpace=wrap;html=1;fontSize=12;glass=0;strokeWidth=1;shadow=0;fillColor=#eeeeee;strokeColor=#36393d;fontStyle=1" vertex="1" parent="1">
          <mxGeometry x="1019.53" y="350" width="139.06" height="57.5" as="geometry" />
        </mxCell>
        <mxCell id="6Cay4Wr6NAdQ-ACYms2q-47" style="edgeStyle=orthogonalEdgeStyle;rounded=0;orthogonalLoop=1;jettySize=auto;html=1;exitX=0.5;exitY=1;exitDx=0;exitDy=0;" edge="1" parent="1">
          <mxGeometry relative="1" as="geometry">
            <mxPoint x="969.03" y="219" as="sourcePoint" />
            <mxPoint x="969.03" y="219" as="targetPoint" />
          </mxGeometry>
        </mxCell>
        <mxCell id="6Cay4Wr6NAdQ-ACYms2q-48" value="&lt;span style=&quot;color: rgb(0, 0, 0); font-family: Helvetica; font-size: 11px; font-style: normal; font-variant-ligatures: normal; font-variant-caps: normal; letter-spacing: normal; orphans: 2; text-align: center; text-indent: 0px; text-transform: none; widows: 2; word-spacing: 0px; -webkit-text-stroke-width: 0px; white-space: nowrap; background-color: rgb(251, 251, 251); text-decoration-thickness: initial; text-decoration-style: initial; text-decoration-color: initial; float: none; display: inline !important;&quot;&gt;No&lt;/span&gt;" style="text;whiteSpace=wrap;html=1;fontStyle=1" vertex="1" parent="1">
          <mxGeometry x="1059.06" y="696" width="50" height="40" as="geometry" />
        </mxCell>
        <mxCell id="6Cay4Wr6NAdQ-ACYms2q-49" style="edgeStyle=orthogonalEdgeStyle;rounded=0;orthogonalLoop=1;jettySize=auto;html=1;endArrow=block;endFill=1;fillColor=#d5e8d4;strokeColor=#82b366;strokeWidth=2;fontStyle=1" edge="1" parent="1" source="6Cay4Wr6NAdQ-ACYms2q-50">
          <mxGeometry relative="1" as="geometry">
            <mxPoint x="440" y="563" as="targetPoint" />
          </mxGeometry>
        </mxCell>
        <mxCell id="6Cay4Wr6NAdQ-ACYms2q-50" value="Queue (SQS)" style="strokeWidth=1;html=1;shape=mxgraph.flowchart.sequential_data;whiteSpace=wrap;fillColor=#eeeeee;strokeColor=#36393d;fontStyle=1" vertex="1" parent="1">
          <mxGeometry x="290.06" y="520" width="90" height="86" as="geometry" />
        </mxCell>
        <mxCell id="6Cay4Wr6NAdQ-ACYms2q-51" value="" style="edgeStyle=orthogonalEdgeStyle;rounded=0;orthogonalLoop=1;jettySize=auto;html=1;fillColor=#f0a30a;strokeColor=#BD7000;endArrow=block;endFill=1;strokeWidth=2;" edge="1" parent="1" source="6Cay4Wr6NAdQ-ACYms2q-52" target="6Cay4Wr6NAdQ-ACYms2q-43">
          <mxGeometry relative="1" as="geometry" />
        </mxCell>
        <mxCell id="6Cay4Wr6NAdQ-ACYms2q-52" value="Partner" style="shape=umlActor;verticalLabelPosition=bottom;verticalAlign=top;html=1;outlineConnect=0;fillColor=#eeeeee;strokeColor=#36393d;fontStyle=1" vertex="1" parent="1">
          <mxGeometry x="930.06" y="631" width="30" height="60" as="geometry" />
        </mxCell>
        <mxCell id="6Cay4Wr6NAdQ-ACYms2q-53" value="" style="edgeStyle=orthogonalEdgeStyle;rounded=0;orthogonalLoop=1;jettySize=auto;html=1;fillColor=#d5e8d4;strokeColor=#82b366;strokeWidth=2;endArrow=block;endFill=1;fontStyle=1" edge="1" parent="1" source="6Cay4Wr6NAdQ-ACYms2q-57" target="6Cay4Wr6NAdQ-ACYms2q-62">
          <mxGeometry relative="1" as="geometry" />
        </mxCell>
        <mxCell id="6Cay4Wr6NAdQ-ACYms2q-54" style="edgeStyle=orthogonalEdgeStyle;rounded=0;orthogonalLoop=1;jettySize=auto;html=1;entryX=0.5;entryY=0;entryDx=0;entryDy=0;fillColor=#e1d5e7;strokeColor=#9673a6;dashed=1;strokeWidth=2;endArrow=block;endFill=1;" edge="1" parent="1" source="6Cay4Wr6NAdQ-ACYms2q-57" target="6Cay4Wr6NAdQ-ACYms2q-13">
          <mxGeometry relative="1" as="geometry">
            <Array as="points">
              <mxPoint x="500" y="160" />
            </Array>
          </mxGeometry>
        </mxCell>
        <mxCell id="6Cay4Wr6NAdQ-ACYms2q-55" style="edgeStyle=orthogonalEdgeStyle;rounded=0;orthogonalLoop=1;jettySize=auto;html=1;entryX=0;entryY=0.5;entryDx=0;entryDy=0;fillColor=#e1d5e7;strokeColor=#9673a6;dashed=1;strokeWidth=2;endArrow=block;endFill=1;" edge="1" parent="1" source="6Cay4Wr6NAdQ-ACYms2q-57" target="6Cay4Wr6NAdQ-ACYms2q-26">
          <mxGeometry relative="1" as="geometry">
            <Array as="points">
              <mxPoint x="110" y="140" />
              <mxPoint x="110" y="480" />
            </Array>
          </mxGeometry>
        </mxCell>
        <mxCell id="6Cay4Wr6NAdQ-ACYms2q-56" style="edgeStyle=orthogonalEdgeStyle;rounded=0;orthogonalLoop=1;jettySize=auto;html=1;fillColor=#e1d5e7;strokeColor=#9673a6;dashed=1;strokeWidth=2;endArrow=block;endFill=1;" edge="1" parent="1" source="6Cay4Wr6NAdQ-ACYms2q-57">
          <mxGeometry relative="1" as="geometry">
            <mxPoint x="940" y="610" as="targetPoint" />
          </mxGeometry>
        </mxCell>
        <mxCell id="6Cay4Wr6NAdQ-ACYms2q-57" value="MS - Pix" style="html=1;shape=mxgraph.basic.isocube;isoAngle=15;fillColor=#cce5ff;strokeColor=#36393d;fontStyle=1" vertex="1" parent="1">
          <mxGeometry x="140.06" y="90" width="100" height="100" as="geometry" />
        </mxCell>
        <mxCell id="6Cay4Wr6NAdQ-ACYms2q-58" style="edgeStyle=orthogonalEdgeStyle;rounded=0;orthogonalLoop=1;jettySize=auto;html=1;strokeWidth=2;fillColor=#d5e8d4;strokeColor=#82b366;endArrow=block;endFill=1;" edge="1" parent="1" source="6Cay4Wr6NAdQ-ACYms2q-59">
          <mxGeometry relative="1" as="geometry">
            <mxPoint x="335.05999999999995" y="610" as="targetPoint" />
          </mxGeometry>
        </mxCell>
        <mxCell id="6Cay4Wr6NAdQ-ACYms2q-59" value="Quarentine OK" style="rounded=1;whiteSpace=wrap;html=1;fontSize=12;glass=0;strokeWidth=1;shadow=0;fillColor=#eeeeee;strokeColor=#36393d;fontStyle=1" vertex="1" parent="1">
          <mxGeometry x="275.06" y="766" width="120" height="40" as="geometry" />
        </mxCell>
        <mxCell id="6Cay4Wr6NAdQ-ACYms2q-60" value="&lt;span style=&quot;color: rgb(0, 0, 0); font-family: Helvetica; font-size: 11px; font-style: normal; font-variant-ligatures: normal; font-variant-caps: normal; letter-spacing: normal; orphans: 2; text-align: center; text-indent: 0px; text-transform: none; widows: 2; word-spacing: 0px; -webkit-text-stroke-width: 0px; white-space: nowrap; background-color: rgb(251, 251, 251); text-decoration-thickness: initial; text-decoration-style: initial; text-decoration-color: initial; float: none; display: inline !important;&quot;&gt;No&lt;/span&gt;" style="text;whiteSpace=wrap;html=1;fontStyle=1" vertex="1" parent="1">
          <mxGeometry x="115.06" y="651" width="50" height="40" as="geometry" />
        </mxCell>
        <mxCell id="6Cay4Wr6NAdQ-ACYms2q-61" value="" style="edgeStyle=orthogonalEdgeStyle;rounded=0;orthogonalLoop=1;jettySize=auto;html=1;fillColor=#f0a30a;strokeColor=#BD7000;strokeWidth=2;endArrow=block;endFill=1;fontStyle=1" edge="1" parent="1" source="6Cay4Wr6NAdQ-ACYms2q-62" target="6Cay4Wr6NAdQ-ACYms2q-5">
          <mxGeometry relative="1" as="geometry" />
        </mxCell>
        <mxCell id="6Cay4Wr6NAdQ-ACYms2q-62" value="&lt;span style=&quot;text-wrap-mode: wrap;&quot;&gt;MS - PKV&lt;/span&gt;" style="html=1;shape=mxgraph.basic.isocube;isoAngle=15;fillColor=#cce5ff;strokeColor=#36393d;fontStyle=1" vertex="1" parent="1">
          <mxGeometry x="140.06" y="220" width="100" height="100" as="geometry" />
        </mxCell>
        <mxCell id="6Cay4Wr6NAdQ-ACYms2q-63" value="MS Pix will send back the success transactions info to Authorizer" style="text;html=1;align=center;verticalAlign=middle;whiteSpace=wrap;rounded=0;fontStyle=0" vertex="1" parent="1">
          <mxGeometry x="10.120000000000001" y="250" width="100" height="81.25" as="geometry" />
        </mxCell>
        <mxCell id="6Cay4Wr6NAdQ-ACYms2q-64" value="MS Pix will send back the success transactions info to Ledger" style="text;html=1;align=center;verticalAlign=middle;whiteSpace=wrap;rounded=0;fontStyle=0" vertex="1" parent="1">
          <mxGeometry x="295.06" y="160" width="184.94" height="50" as="geometry" />
        </mxCell>
        <mxCell id="6Cay4Wr6NAdQ-ACYms2q-65" style="edgeStyle=orthogonalEdgeStyle;rounded=0;orthogonalLoop=1;jettySize=auto;html=1;entryX=0.999;entryY=0.325;entryDx=0;entryDy=0;entryPerimeter=0;fillColor=#d5e8d4;strokeColor=#82b366;strokeWidth=2;endArrow=block;endFill=1;" edge="1" parent="1" source="6Cay4Wr6NAdQ-ACYms2q-46" target="6Cay4Wr6NAdQ-ACYms2q-57">
          <mxGeometry relative="1" as="geometry">
            <Array as="points">
              <mxPoint x="1089" y="123" />
              <mxPoint x="630" y="123" />
            </Array>
          </mxGeometry>
        </mxCell>
        <mxCell id="6Cay4Wr6NAdQ-ACYms2q-66" value="MS Pix will send back the success transactions info to Partner/BCB" style="text;html=1;align=center;verticalAlign=middle;whiteSpace=wrap;rounded=0;" vertex="1" parent="1">
          <mxGeometry x="749.06" y="140" width="184.94" height="50" as="geometry" />
        </mxCell>
        <mxCell id="6Cay4Wr6NAdQ-ACYms2q-67" value="" style="endArrow=block;html=1;rounded=0;strokeWidth=2;endFill=1;fontSize=13;align=right;" edge="1" parent="1">
          <mxGeometry width="50" height="50" relative="1" as="geometry">
            <mxPoint x="745" y="264.71" as="sourcePoint" />
            <mxPoint x="801" y="265" as="targetPoint" />
          </mxGeometry>
        </mxCell>
        <mxCell id="6Cay4Wr6NAdQ-ACYms2q-68" value="" style="endArrow=classic;html=1;rounded=0;fillColor=#e1d5e7;strokeColor=#9673a6;dashed=1;strokeWidth=2;fontSize=13;align=right;" edge="1" parent="1">
          <mxGeometry width="50" height="50" relative="1" as="geometry">
            <mxPoint x="745" y="295.21" as="sourcePoint" />
            <mxPoint x="801" y="295" as="targetPoint" />
          </mxGeometry>
        </mxCell>
        <mxCell id="6Cay4Wr6NAdQ-ACYms2q-69" value="Flow" style="text;html=1;align=right;verticalAlign=middle;whiteSpace=wrap;rounded=0;fontSize=13;" vertex="1" parent="1">
          <mxGeometry x="680" y="250" width="60" height="30" as="geometry" />
        </mxCell>
        <mxCell id="6Cay4Wr6NAdQ-ACYms2q-70" value="Return" style="text;html=1;align=right;verticalAlign=middle;whiteSpace=wrap;rounded=0;fontSize=13;" vertex="1" parent="1">
          <mxGeometry x="680" y="280" width="60" height="30" as="geometry" />
        </mxCell>
        <mxCell id="6Cay4Wr6NAdQ-ACYms2q-71" value="" style="edgeStyle=orthogonalEdgeStyle;rounded=0;orthogonalLoop=1;jettySize=auto;html=1;endArrow=cross;endFill=0;fillColor=#e51400;strokeColor=#B20000;strokeWidth=2;fontSize=13;align=right;" edge="1" parent="1">
          <mxGeometry relative="1" as="geometry">
            <mxPoint x="745" y="325" as="sourcePoint" />
            <mxPoint x="801" y="325" as="targetPoint" />
          </mxGeometry>
        </mxCell>
        <mxCell id="6Cay4Wr6NAdQ-ACYms2q-72" value="" style="edgeStyle=orthogonalEdgeStyle;rounded=0;orthogonalLoop=1;jettySize=auto;html=1;endArrow=block;endFill=1;fillColor=#d5e8d4;strokeColor=#82b366;strokeWidth=2;fontSize=13;align=right;" edge="1" parent="1">
          <mxGeometry relative="1" as="geometry">
            <mxPoint x="745" y="355" as="sourcePoint" />
            <mxPoint x="801" y="355" as="targetPoint" />
          </mxGeometry>
        </mxCell>
        <mxCell id="6Cay4Wr6NAdQ-ACYms2q-73" value="" style="edgeStyle=orthogonalEdgeStyle;rounded=0;orthogonalLoop=1;jettySize=auto;html=1;endArrow=block;endFill=1;fillColor=#f0a30a;strokeColor=#BD7000;strokeWidth=2;fontSize=13;align=right;" edge="1" parent="1">
          <mxGeometry relative="1" as="geometry">
            <mxPoint x="745" y="385" as="sourcePoint" />
            <mxPoint x="801" y="385" as="targetPoint" />
          </mxGeometry>
        </mxCell>
        <mxCell id="6Cay4Wr6NAdQ-ACYms2q-74" value="Status: Bloqued" style="text;html=1;align=right;verticalAlign=middle;whiteSpace=wrap;rounded=0;fontSize=13;" vertex="1" parent="1">
          <mxGeometry x="636" y="310" width="104" height="30" as="geometry" />
        </mxCell>
        <mxCell id="6Cay4Wr6NAdQ-ACYms2q-75" value="Status: Success" style="text;html=1;align=right;verticalAlign=middle;whiteSpace=wrap;rounded=0;fontSize=13;" vertex="1" parent="1">
          <mxGeometry x="621" y="340" width="119" height="30" as="geometry" />
        </mxCell>
        <mxCell id="6Cay4Wr6NAdQ-ACYms2q-76" value="Status: Pending" style="text;html=1;align=right;verticalAlign=middle;whiteSpace=wrap;rounded=0;fontSize=13;" vertex="1" parent="1">
          <mxGeometry x="620" y="370" width="119" height="30" as="geometry" />
        </mxCell>
      </root>
    </mxGraphModel>
  </diagram>
</mxfile>
